<svg width="312" height="484" viewBox="0 0 312 484" fill="none" xmlns="http://www.w3.org/2000/svg">
<path d="M149.86 344.819C131.919 344.105 114.315 342.618 97.2654 336.75C71.5529 327.889 57.5567 309.968 55.2967 282.929C54.3253 271.173 53.6909 259.398 52.7988 247.662C51.7085 233.25 46.3955 220.107 40.349 207.202C33.9258 193.464 26.4717 180.083 21.3372 165.869C0.91782 109.45 25.3417 45.9347 77.8174 16.7342C103.133 2.6395 130.115 -1.58297 158.504 2.46109C200.75 8.46771 235.681 28.9259 266.032 57.9876C281.436 72.7366 294.421 89.3291 302.747 109.212C311.668 130.523 312.343 152.508 307.981 174.869C303.164 199.629 292.934 222.406 282.09 244.926C273.348 263.085 264.585 281.224 252.948 297.816C236.315 321.506 214.211 336.671 185.346 341.032C173.59 342.816 161.676 343.609 149.84 344.838" fill="#C8D6DC"/>
<path d="M163.043 480.895C142.099 480.524 122.463 474.984 103.664 466.18C80.2518 455.221 58.2995 441.97 39.8328 423.527C11.0337 394.765 -0.434307 359.911 4.29584 319.68C8.50294 284.233 20.232 251.432 41.3508 222.501C62.4695 193.57 90.0973 174.598 125.629 168.477C146.437 165.078 167.741 166.398 187.973 172.339C211.28 178.534 232.954 189.759 251.478 205.225C266.753 218.194 279.745 233.017 286.927 252.082C289.242 258.209 290.841 264.583 291.693 271.078C293.545 285.735 287.161 297.436 276.952 307.365C270.961 313.202 264.879 318.965 258.833 324.747C246.778 336.255 241.258 350.63 241.302 367.049C241.325 381.709 242.372 396.368 242.614 411.027C243.198 445.495 221.811 466.4 195.686 475.768C190.833 477.546 185.817 478.843 180.711 479.639C174.914 480.436 168.951 480.482 163.043 480.895Z" stroke="#7599A7" stroke-width="4.6" stroke-linecap="round" stroke-linejoin="bevel" stroke-dasharray="0.01 11.04"/>
</svg>
