<svg width="498" height="365" viewBox="0 0 498 365" fill="none" xmlns="http://www.w3.org/2000/svg">
<g clip-path="url(#clip0_203_6)">
<path d="M207.906 211.119C201.223 196.291 195.304 181.423 193.159 165.233C189.933 140.81 198.791 122.216 219.788 109.441C228.921 103.896 238.207 98.6167 247.356 93.1442C258.594 86.428 267.094 76.8034 275.105 66.6807C283.638 55.9158 291.465 44.4599 300.905 34.5467C338.36 -4.83334 399.715 -10.7466 444.615 19.9597C466.282 34.7705 480.624 54.9261 488.836 79.5678C501.066 116.233 498.624 152.819 487.357 189.176C481.639 207.628 473.449 224.866 460.706 239.66C447.047 255.514 429.505 264.957 409.619 270.473C387.605 276.59 365.007 277.518 342.369 277.845C324.116 278.109 305.871 278.349 287.715 275.634C261.787 271.743 240.552 259.968 225.336 238.343C219.132 229.538 213.668 220.204 207.882 211.11" fill="#ACC2CA"/>
<path d="M275.062 175.789C280.684 193.911 281.488 212.374 279.248 231.043C276.461 254.292 271.289 276.935 260.662 298.052C244.089 330.984 217.359 350.736 181.409 358.079C149.723 364.514 118.18 363.729 87.3017 353.768C56.4238 343.807 32.2663 325.422 16.9226 296.593C8.09604 279.658 3.18814 260.956 2.56023 241.867C1.27852 220.06 4.78588 198.231 12.8368 177.91C19.6599 161.09 28.726 145.71 43.0893 134.124C47.7029 130.395 52.7325 127.211 58.0778 124.635C70.161 118.885 82.0375 121.057 93.4753 127.023C100.195 130.521 106.879 134.119 113.567 137.679C126.886 144.785 140.818 145.456 154.93 140.761C167.535 136.583 179.847 131.524 192.389 127.158C221.874 116.878 245.924 129.347 261.393 149.163C264.299 152.833 266.837 156.78 268.971 160.946C271.301 165.707 273.032 170.824 275.062 175.789Z" stroke="#7599A7" stroke-width="4.16666" stroke-linecap="round" stroke-linejoin="bevel" stroke-dasharray="0.01 10"/>
</g>
<defs>
<clipPath id="clip0_203_6">
<rect width="498" height="365" fill="white"/>
</clipPath>
</defs>
</svg>
