<svg width="98" height="96" viewBox="0 0 98 96" fill="none" xmlns="http://www.w3.org/2000/svg">
<path d="M63.9513 0H33.0633C14.8029 0 0 14.5638 0 32.5291V62.9181C0 80.8834 14.8029 95.4471 33.0633 95.4471H63.9513C82.2117 95.4471 97.0146 80.8834 97.0146 62.9181V32.5291C97.0146 14.5638 82.2117 0 63.9513 0Z" fill="#F7E5D5"/>
<path d="M47.9296 72.6281L49.1726 67.602C35.6925 70.4452 36.979 60.9311 36.979 60.9311L37.9112 53.557C37.9279 53.422 37.9153 53.2851 37.8742 53.1553C37.8331 53.0255 37.7645 52.9058 37.6728 52.804C37.5812 52.7023 37.4686 52.6209 37.3425 52.5652C37.2165 52.5094 37.0799 52.4807 36.9417 52.4808H33.6478C33.4843 52.4802 33.3238 52.4375 33.1822 52.357C33.0407 52.2766 32.9229 52.1611 32.8406 52.0221C32.7584 51.8831 32.7145 51.7254 32.7132 51.5645C32.712 51.4037 32.7535 51.2453 32.8336 51.1051C34.3376 48.5064 37.4451 42.8261 38.1163 39.2369C39.9683 29.2886 46.6556 19.5666 61.6335 22.2447C75.5921 24.7516 76.8786 35.9534 76.4436 42.1902C76.052 47.6443 73.7152 53.1962 70.8502 57.5742C68.4264 61.2918 68.8428 64.2512 68.8428 66.9477V72.6097C68.8428 72.8562 68.7432 73.0926 68.5661 73.2669C68.3889 73.4412 68.1486 73.5391 67.8981 73.5391H48.8743C48.6269 73.5392 48.3894 73.4438 48.2128 73.2734C48.0362 73.1031 47.9345 72.8714 47.9296 72.6281V72.6281Z" fill="#D3A176"/>
<path d="M48.768 73.6613C48.3614 73.6597 47.9719 73.5001 47.6844 73.2172C47.3969 72.9343 47.2346 72.5511 47.233 72.1511V66.5257C47.2323 66.2995 47.2832 66.076 47.3821 65.8717C47.481 65.6675 47.6252 65.4877 47.8042 65.3456C47.9832 65.2036 48.1923 65.1029 48.4162 65.051C48.64 64.9992 48.8728 64.9975 49.0974 65.046C53.0439 65.8776 55.9338 65.5902 57.4378 64.2144C58.9418 62.8387 58.7554 60.454 58.7554 60.4296L57.9039 53.4591C57.8667 53.1201 57.9018 52.7772 58.0072 52.4523C58.1126 52.1275 58.2858 51.8279 58.5158 51.5729C58.7458 51.3178 59.0275 51.1129 59.3427 50.9712C59.658 50.8296 59.9999 50.7543 60.3464 50.7503H62.3165C60.7504 47.9621 58.3079 43.2479 57.7051 40.0378C56.7045 34.657 52.7331 22.4525 37.2953 25.2162C25.3192 27.3624 24.1943 36.9438 24.5921 42.4591C24.909 46.8248 26.7238 51.8571 29.6137 56.2534C31.8635 59.7081 31.8076 62.6308 31.7641 64.9788C31.7641 65.2967 31.7641 65.5902 31.7641 65.9204V72.1511C31.7641 72.5565 31.6004 72.9453 31.309 73.2319C31.0176 73.5186 30.6224 73.6797 30.2103 73.6797C29.7983 73.6797 29.4031 73.5186 29.1117 73.2319C28.8203 72.9453 28.6566 72.5565 28.6566 72.1511V65.9265C28.6566 65.5963 28.6566 65.2661 28.6566 64.9237C28.7001 62.6919 28.7436 60.5763 26.991 57.8982C25.1266 55.0672 21.9694 49.3379 21.4908 42.667C21.1117 37.4146 21.8389 24.8983 36.7111 22.2324C49.2963 19.97 58.2706 26.4208 60.7006 39.4875C61.4837 43.6575 66.2133 51.3985 66.2568 51.4719C66.3973 51.7013 66.4735 51.9632 66.4778 52.2311C66.482 52.4989 66.414 52.763 66.2808 52.9966C66.1475 53.2302 65.9538 53.4249 65.7192 53.5609C65.4847 53.6969 65.2177 53.7694 64.9454 53.7709H61.0363L61.8007 60.0505C61.8007 60.185 62.2917 63.921 59.5198 66.4401C57.5062 68.2745 54.4112 68.8859 50.3093 68.3356V72.1511C50.3077 72.5522 50.1446 72.9363 49.8557 73.2193C49.5668 73.5024 49.1757 73.6613 48.768 73.6613ZM53.8705 42.9055C53.9938 42.7383 54.0812 42.5481 54.1271 42.3465C54.1731 42.1449 54.1767 41.9362 54.1377 41.7332C54.0987 41.5302 54.018 41.3372 53.9005 41.166C53.783 40.9948 53.6311 40.849 53.4543 40.7376C53.2774 40.6262 53.0793 40.5515 52.8721 40.5182C52.6649 40.4848 52.4529 40.4934 52.2492 40.5436C52.0455 40.5937 51.8543 40.6842 51.6875 40.8097C51.5206 40.9351 51.3816 41.0927 51.2789 41.2729C51.0421 41.7668 50.6675 42.1843 50.1987 42.4767C49.73 42.7691 49.1864 42.9243 48.6313 42.9243C48.0763 42.9243 47.5327 42.7691 47.0639 42.4767C46.5951 42.1843 46.2205 41.7668 45.9838 41.2729C45.881 41.0927 45.742 40.9351 45.5751 40.8097C45.4083 40.6842 45.2171 40.5937 45.0134 40.5436C44.8097 40.4934 44.5977 40.4848 44.3905 40.5182C44.1833 40.5515 43.9852 40.6262 43.8083 40.7376C43.6315 40.849 43.4797 40.9948 43.3621 41.166C43.2446 41.3372 43.1639 41.5302 43.1249 41.7332C43.086 41.9362 43.0896 42.1449 43.1355 42.3465C43.1815 42.5481 43.2688 42.7383 43.3921 42.9055C43.908 43.8286 44.6663 44.5984 45.5879 45.1347C46.5095 45.6709 47.5606 45.9538 48.6313 45.9538C49.702 45.9538 50.7531 45.6709 51.6747 45.1347C52.5963 44.5984 53.3546 43.8286 53.8705 42.9055Z" fill="#281C1A"/>
</svg>
