<svg width="279" height="96" viewBox="0 0 279 96" fill="none" xmlns="http://www.w3.org/2000/svg">
<path d="M63.9513 0H33.0633C14.8029 0 0 14.5638 0 32.5291V62.9181C0 80.8834 14.8029 95.4471 33.0633 95.4471H63.9513C82.2117 95.4471 97.0146 80.8834 97.0146 62.9181V32.5291C97.0146 14.5638 82.2117 0 63.9513 0Z" fill="#F7E5D5"/>
<path d="M47.9296 72.6281L49.1726 67.602C35.6925 70.4452 36.979 60.931 36.979 60.931L37.9112 53.557C37.9279 53.422 37.9153 53.2851 37.8742 53.1553C37.8331 53.0255 37.7645 52.9058 37.6728 52.804C37.5812 52.7023 37.4686 52.6209 37.3425 52.5652C37.2165 52.5094 37.0799 52.4807 36.9417 52.4808H33.6478C33.4843 52.4802 33.3238 52.4375 33.1822 52.357C33.0407 52.2766 32.9229 52.1611 32.8406 52.0221C32.7584 51.8831 32.7145 51.7254 32.7132 51.5645C32.712 51.4037 32.7535 51.2453 32.8336 51.1051C34.3376 48.5064 37.4451 42.8261 38.1163 39.2369C39.9683 29.2886 46.6556 19.5666 61.6335 22.2447C75.5921 24.7516 76.8786 35.9534 76.4436 42.1902C76.052 47.6443 73.7152 53.1962 70.8502 57.5742C68.4264 61.2918 68.8428 64.2512 68.8428 66.9477V72.6097C68.8428 72.8562 68.7432 73.0926 68.5661 73.2669C68.3889 73.4412 68.1486 73.5391 67.8981 73.5391H48.8743C48.6269 73.5392 48.3894 73.4438 48.2128 73.2734C48.0362 73.1031 47.9345 72.8714 47.9296 72.6281Z" fill="#D3A176"/>
<path d="M48.768 73.6613C48.3614 73.6597 47.9719 73.5001 47.6844 73.2172C47.3969 72.9343 47.2346 72.5511 47.233 72.1511V66.5257C47.2323 66.2995 47.2832 66.076 47.3821 65.8717C47.481 65.6675 47.6252 65.4877 47.8042 65.3456C47.9832 65.2036 48.1923 65.1029 48.4162 65.051C48.64 64.9992 48.8728 64.9975 49.0974 65.046C53.0439 65.8776 55.9338 65.5902 57.4378 64.2144C58.9418 62.8387 58.7554 60.454 58.7554 60.4296L57.9039 53.4591C57.8667 53.1201 57.9018 52.7772 58.0072 52.4523C58.1126 52.1275 58.2858 51.8279 58.5158 51.5729C58.7458 51.3178 59.0275 51.1129 59.3427 50.9712C59.658 50.8296 59.9999 50.7543 60.3464 50.7503H62.3165C60.7504 47.9621 58.3079 43.2479 57.7051 40.0378C56.7045 34.657 52.7331 22.4525 37.2953 25.2162C25.3192 27.3624 24.1943 36.9438 24.5921 42.4591C24.909 46.8248 26.7238 51.8571 29.6137 56.2534C31.8635 59.7081 31.8076 62.6308 31.7641 64.9788C31.7641 65.2967 31.7641 65.5902 31.7641 65.9204V72.1511C31.7641 72.5565 31.6004 72.9453 31.309 73.2319C31.0176 73.5186 30.6224 73.6797 30.2103 73.6797C29.7983 73.6797 29.4031 73.5186 29.1117 73.2319C28.8203 72.9453 28.6566 72.5565 28.6566 72.1511V65.9265C28.6566 65.5963 28.6566 65.2661 28.6566 64.9237C28.7001 62.6919 28.7436 60.5763 26.991 57.8982C25.1266 55.0672 21.9694 49.3379 21.4908 42.667C21.1117 37.4146 21.8389 24.8983 36.7111 22.2324C49.2963 19.97 58.2706 26.4208 60.7006 39.4875C61.4837 43.6575 66.2133 51.3985 66.2568 51.4719C66.3973 51.7013 66.4735 51.9632 66.4778 52.2311C66.482 52.4989 66.414 52.763 66.2808 52.9966C66.1475 53.2302 65.9538 53.4249 65.7192 53.5609C65.4847 53.6969 65.2177 53.7694 64.9454 53.7709H61.0363L61.8007 60.0505C61.8007 60.185 62.2917 63.921 59.5198 66.4401C57.5062 68.2745 54.4112 68.8859 50.3093 68.3356V72.1511C50.3077 72.5522 50.1446 72.9363 49.8557 73.2193C49.5668 73.5024 49.1757 73.6613 48.768 73.6613ZM53.8705 42.9055C53.9938 42.7383 54.0812 42.5481 54.1271 42.3465C54.1731 42.1449 54.1767 41.9362 54.1377 41.7332C54.0987 41.5302 54.018 41.3372 53.9005 41.166C53.783 40.9948 53.6311 40.849 53.4543 40.7376C53.2774 40.6262 53.0793 40.5515 52.8721 40.5182C52.6649 40.4848 52.4529 40.4934 52.2492 40.5436C52.0455 40.5937 51.8543 40.6842 51.6875 40.8097C51.5206 40.9351 51.3816 41.0927 51.2789 41.2729C51.0421 41.7668 50.6675 42.1843 50.1987 42.4767C49.73 42.7691 49.1864 42.9243 48.6313 42.9243C48.0763 42.9243 47.5327 42.7691 47.0639 42.4767C46.5951 42.1843 46.2205 41.7668 45.9838 41.2729C45.881 41.0927 45.742 40.9351 45.5751 40.8097C45.4083 40.6842 45.2171 40.5937 45.0134 40.5436C44.8097 40.4934 44.5977 40.4848 44.3905 40.5182C44.1833 40.5515 43.9852 40.6262 43.8083 40.7376C43.6315 40.849 43.4797 40.9948 43.3621 41.166C43.2446 41.3372 43.1639 41.5302 43.1249 41.7332C43.086 41.9362 43.0896 42.1449 43.1355 42.3465C43.1815 42.5481 43.2688 42.7383 43.3921 42.9055C43.908 43.8286 44.6663 44.5984 45.5879 45.1347C46.5095 45.6709 47.5606 45.9538 48.6313 45.9538C49.702 45.9538 50.7531 45.6709 51.6747 45.1347C52.5963 44.5984 53.3546 43.8286 53.8705 42.9055Z" fill="#281C1A"/>
<path d="M135.485 37.9524H130.102V31.1836C130.102 30.8879 129.984 30.6043 129.772 30.3946C129.56 30.1849 129.272 30.0663 128.971 30.0647H123.378C123.079 30.0679 122.792 30.1872 122.582 30.3967C122.371 30.6062 122.253 30.889 122.253 31.1836V37.9524H119.202C118.903 37.9572 118.619 38.0772 118.409 38.2865C118.2 38.4959 118.083 38.7777 118.083 39.0713V42.9479C118.083 43.2447 118.203 43.5293 118.416 43.7391C118.629 43.949 118.919 44.0669 119.22 44.0669H122.272V56.6627C122.272 63.8656 124.615 66.6721 130.643 66.6721C132.361 66.674 134.07 66.4372 135.721 65.969C135.967 65.8957 136.18 65.7417 136.325 65.5325C136.47 65.3233 136.537 65.0717 136.516 64.8194L136.237 60.9429C136.226 60.7835 136.181 60.6282 136.104 60.4878C136.027 60.3473 135.919 60.2251 135.789 60.1296C135.659 60.0317 135.509 59.9625 135.349 59.9266C135.189 59.8908 135.024 59.8891 134.863 59.9217C134.334 60.0311 133.794 60.0864 133.253 60.0868C130.892 60.0868 130.102 59.3592 130.102 55.0485V44.0424H135.485C135.786 44.0424 136.076 43.9245 136.289 43.7147C136.502 43.5048 136.622 43.2202 136.622 42.9235V39.0713C136.622 38.7746 136.502 38.49 136.289 38.2801C136.076 38.0703 135.786 37.9524 135.485 37.9524Z" fill="#281C1A"/>
<path d="M155.69 37.3838C151.917 37.3838 149.052 38.8512 147.368 41.6639V27.2276C147.368 26.9308 147.248 26.6462 147.035 26.4364C146.821 26.2265 146.532 26.1086 146.23 26.1086H140.637C140.335 26.1086 140.046 26.2265 139.833 26.4364C139.62 26.6462 139.5 26.9308 139.5 27.2276V64.9234C139.5 65.2202 139.62 65.5048 139.833 65.7146C140.046 65.9245 140.335 66.0424 140.637 66.0424H146.23C146.532 66.0424 146.821 65.9245 147.035 65.7146C147.248 65.5048 147.368 65.2202 147.368 64.9234V52.028C147.368 48.292 148.393 43.8407 153.303 43.8407C157.318 43.8407 158.138 46.7022 158.138 51.0007V64.9234C158.138 65.2202 158.258 65.5048 158.471 65.7146C158.685 65.9245 158.974 66.0424 159.276 66.0424H164.9C165.202 66.0424 165.491 65.9245 165.704 65.7146C165.917 65.5048 166.037 65.2202 166.037 64.9234V49.3926C166.037 44.2381 164.962 37.3838 155.69 37.3838Z" fill="#281C1A"/>
<path d="M184.067 37.384C175.621 37.384 169.245 43.8532 169.245 52.4318C169.245 61.0104 175.13 66.648 184.241 66.648C191.077 66.648 195.061 63.8842 196.46 62.698C196.678 62.5149 196.817 62.2571 196.849 61.9767C196.882 61.6963 196.805 61.4143 196.634 61.1877L194.738 58.6135C194.57 58.3787 194.315 58.2183 194.028 58.1668C193.741 58.1153 193.444 58.1769 193.203 58.3384C190.909 59.7867 188.247 60.5687 185.521 60.5946C181.221 60.5946 178.138 58.2711 177.442 54.5168H197.013C197.305 54.517 197.587 54.4057 197.798 54.2062C198.008 54.0066 198.133 53.7345 198.144 53.4468C198.2 52.2239 198.225 51.2578 198.225 50.573C198.2 42.6914 192.519 37.384 184.067 37.384ZM184.011 43.2662C187.902 43.2662 190.008 45.2656 190.282 49.2033C190.281 49.2391 190.268 49.2734 190.245 49.3012C190.215 49.3267 190.178 49.3418 190.139 49.344H177.442C177.421 49.3445 177.4 49.3404 177.38 49.3319C177.361 49.3234 177.344 49.3109 177.33 49.2951C177.316 49.2815 177.306 49.2652 177.3 49.2472C177.293 49.2292 177.291 49.2101 177.293 49.1911C177.61 46.3295 179.543 43.2662 184.011 43.2662Z" fill="#281C1A"/>
<path d="M216.111 37.384C214.661 37.4165 213.25 37.8517 212.04 38.6393C210.831 39.4269 209.872 40.5348 209.275 41.8354L209.349 39.041C209.351 38.892 209.322 38.7442 209.265 38.6062C209.208 38.4682 209.123 38.3429 209.016 38.2375C208.909 38.1322 208.782 38.0489 208.641 37.9926C208.501 37.9364 208.351 37.9082 208.2 37.9099H202.656C202.354 37.9099 202.065 38.0277 201.852 38.2376C201.638 38.4474 201.518 38.732 201.518 39.0288V64.9359C201.518 65.2327 201.638 65.5173 201.852 65.7271C202.065 65.937 202.354 66.0548 202.656 66.0548H208.249C208.551 66.0548 208.84 65.937 209.053 65.7271C209.267 65.5173 209.387 65.2327 209.387 64.9359V52.1994C209.32 50.3915 209.668 48.592 210.406 46.9348C210.871 46.111 211.563 45.4323 212.401 44.9761C213.239 44.5199 214.191 44.3045 215.148 44.3545C216.167 44.3467 217.183 44.4596 218.174 44.6908H218.796L219.349 37.9649L219.212 37.8976C218.229 37.5055 217.171 37.3302 216.111 37.384Z" fill="#281C1A"/>
<path d="M226.694 33.9414C229.293 33.9414 231.399 32.0224 231.399 29.6552C231.399 27.2879 229.293 25.3689 226.694 25.3689C224.096 25.3689 221.99 27.2879 221.99 29.6552C221.99 32.0224 224.096 33.9414 226.694 33.9414Z" fill="#281C1A"/>
<path d="M229.51 37.8975H223.885C223.257 37.8975 222.748 38.3984 222.748 39.0164V64.9235C222.748 65.5415 223.257 66.0424 223.885 66.0424H229.51C230.138 66.0424 230.647 65.5415 230.647 64.9235V39.0164C230.647 38.3984 230.138 37.8975 229.51 37.8975Z" fill="#281C1A"/>
<path d="M278.807 38.3929C278.703 38.24 278.563 38.1148 278.398 38.0284C278.233 37.9419 278.049 37.897 277.862 37.8976H272.113C271.881 37.8978 271.654 37.9683 271.464 38.0996C271.274 38.2308 271.13 38.4165 271.051 38.6314L264.133 57.1032L257.142 38.6314C257.061 38.4191 256.917 38.2359 256.728 38.106C256.54 37.9761 256.315 37.9055 256.085 37.9038L248.95 37.9527H246.234V35.7759C246.234 32.6453 247.384 31.2512 249.963 31.2512C250.694 31.2602 251.423 31.338 252.139 31.4835C252.293 31.5117 252.451 31.5083 252.604 31.4736C252.757 31.4389 252.901 31.3736 253.027 31.2818C253.155 31.1865 253.262 31.0661 253.34 30.9282C253.418 30.7903 253.466 30.6379 253.481 30.4808L253.786 27.02C253.812 26.7458 253.734 26.4716 253.566 26.2511C253.398 26.0307 253.153 25.8796 252.878 25.8276C251.301 25.5494 249.701 25.4143 248.099 25.4241C241.884 25.4241 238.447 29.2028 238.447 36.0633V37.9527H235.75C235.448 37.9527 235.159 38.0706 234.946 38.2804C234.732 38.4902 234.613 38.7749 234.613 39.0716V42.9482C234.613 43.245 234.732 43.5296 234.946 43.7394C235.159 43.9493 235.448 44.0672 235.75 44.0672H238.447V64.9237C238.449 65.2194 238.569 65.5024 238.782 65.7109C238.996 65.9195 239.284 66.0365 239.584 66.0365H245.215C245.516 66.0349 245.803 65.9163 246.015 65.7066C246.227 65.4969 246.346 65.2133 246.346 64.9176V44.0672H251.15L260.193 65.7308C260.261 65.8954 260.261 66.0798 260.193 66.2444L259.112 68.7697C258.639 69.9375 257.701 70.4573 256.066 70.4573C255.24 70.422 254.421 70.2844 253.63 70.0476C253.486 70.0087 253.335 69.9983 253.186 70.017C253.038 70.0356 252.894 70.0829 252.764 70.1562C252.634 70.2295 252.521 70.3273 252.429 70.444C252.338 70.5607 252.271 70.6941 252.232 70.8364L251.175 74.7558C251.1 75.0305 251.134 75.3232 251.27 75.5742C251.406 75.8253 251.635 76.0158 251.909 76.1071C253.82 76.692 255.811 76.9848 257.813 76.9753C261.685 76.9753 264.158 74.8414 266.34 69.6379L278.912 39.4385C278.985 39.2694 279.013 39.0851 278.995 38.9025C278.976 38.7199 278.912 38.5447 278.807 38.3929Z" fill="#281C1A"/>
</svg>
