<svg width="384" height="475" viewBox="0 0 384 475" fill="none" xmlns="http://www.w3.org/2000/svg">
<g clip-path="url(#clip0_201_5)">
<path d="M144.971 332.083C128.876 324.027 113.408 315.404 100.255 303.007C80.4239 284.301 75.0341 262.155 84.1285 236.521C88.0924 225.382 92.3724 214.363 96.4006 203.275C101.352 189.659 101.923 175.46 101.725 161.176C101.527 145.976 100.24 130.676 101.415 115.573C106.045 55.6078 154.569 7.66579 214.556 2.64716C243.499 0.219187 269.888 7.49677 294.153 22.9067C330.266 45.8281 353.732 78.9322 369.465 118.006C377.45 137.836 382.464 158.352 381.864 179.951C381.219 203.1 372.762 223.461 359.55 242.088C344.931 262.718 326.187 279.304 306.987 295.401C291.507 308.381 276.017 321.334 258.539 331.689C233.568 346.465 207.117 351.197 178.95 343.268C167.474 340.047 156.263 335.854 144.945 332.093" fill="#F2E4D8"/>
<path d="M100.857 461.829C81.877 452.846 66.2263 439.682 52.6863 423.882C35.8218 404.209 21.2371 383.045 11.979 358.576C-2.45931 320.417 1.4486 283.845 22.3721 249.047C40.8436 218.402 65.0948 193.279 96.3261 175.566C127.557 157.853 160.625 151.923 195.609 160.995C216.02 166.477 234.937 176.475 250.966 190.251C269.701 205.53 284.868 224.727 295.406 246.501C304.008 264.651 309.759 283.554 308.452 303.933C308.038 310.485 306.869 316.968 304.967 323.253C300.61 337.406 289.949 345.461 276.525 350.318C268.644 353.177 260.709 355.932 252.801 358.719C237.039 364.257 226.064 375.111 219.328 390.127C213.299 403.528 208.206 417.351 202.378 430.842C188.687 462.57 160.522 472.84 132.792 470.617C127.624 470.238 122.508 469.353 117.514 467.973C111.89 466.309 106.424 463.89 100.857 461.829Z" stroke="#D3A176" stroke-width="3.61102" stroke-linecap="round" stroke-linejoin="bevel" stroke-dasharray="0.01 8.67"/>
</g>
<defs>
<clipPath id="clip0_201_5">
<rect width="384" height="475" fill="white"/>
</clipPath>
</defs>
</svg>
